<svg height="480pt" viewBox="0 0 480 480" width="480pt" xmlns="http://www.w3.org/2000/svg"><g fill="#9bc9ff"><path d="m40 40h128v-32h-160v160h32zm0 0"/><path d="m312 40h128v128h32v-160h-160zm0 0"/><path d="m168 440h-128v-128h-32v160h160zm0 0"/><path d="m440 440h-128v32h160v-160h-32zm0 0"/></g><path d="m48 176h-48v-176h176v48h-128zm-32-16h16v-128h128v-16h-144zm0 0" fill="#1e81ce"/><path d="m480 176h-48v-128h-128v-48h176zm-32-16h16v-144h-144v16h128zm0 0" fill="#1e81ce"/><path d="m176 480h-176v-176h48v128h128zm-160-16h144v-16h-128v-128h-16zm0 0" fill="#1e81ce"/><path d="m480 480h-176v-48h128v-128h48zm-160-16h144v-144h-16v128h-128zm0 0" fill="#1e81ce"/></svg>